<svg xmlns="http://www.w3.org/2000/svg" xmlns:xlink="http://www.w3.org/1999/xlink" version="1.1" width="1000" height="1000" viewBox="0 0 1000 1000" xml:space="preserve">
<desc>Created with Fabric.js 3.5.0</desc>
<defs>
</defs>
<rect x="0" y="0" width="100%" height="100%" fill="#ffffff"/>
<g transform="matrix(30.303 0 0 30.303 499.9996 499.9995)" id="685193">
<g style="" vector-effect="non-scaling-stroke">
		<g transform="matrix(1 0 0 1 0 0.1807)" id="Path">
<path style="stroke: none; stroke-width: 1; stroke-dasharray: none; stroke-linecap: butt; stroke-dashoffset: 0; stroke-linejoin: miter; stroke-miterlimit: 4; is-custom-font: none; font-file-url: none; fill: rgb(34,34,34); fill-rule: nonzero; opacity: 1;" transform=" translate(-14, -15.1807)" d="M 14 25.6626506 C 13.6034769 25.6626506 13.2820513 25.339012 13.2820513 24.939759 L 13.2820513 22.0481928 L 11.8461538 22.0481928 C 11.4496308 22.0481928 11.1282051 21.7245542 11.1282051 21.3253012 L 11.1282051 9.39759036 C 11.1282051 8.99833735 11.4496308 8.6746988 11.8461538 8.6746988 L 13.2820513 8.6746988 L 13.2820513 5.42168675 C 13.2820513 5.02243373 13.6034769 4.69879518 14 4.69879518 C 14.3965231 4.69879518 14.7179487 5.02243373 14.7179487 5.42168675 L 14.7179487 8.6746988 L 16.1538462 8.6746988 C 16.5503692 8.6746988 16.8717949 8.99833735 16.8717949 9.39759036 L 16.8717949 21.3253012 C 16.8717949 21.7245542 16.5503692 22.0481928 16.1538462 22.0481928 L 14.7179487 22.0481928 L 14.7179487 24.939759 C 14.7179487 25.339012 14.3965231 25.6626506 14 25.6626506 Z" stroke-linecap="round"/>
</g>
		<g transform="matrix(1 0 0 1 -11.1282 2.3494)" id="Path">
<path style="stroke: none; stroke-width: 1; stroke-dasharray: none; stroke-linecap: butt; stroke-dashoffset: 0; stroke-linejoin: miter; stroke-miterlimit: 4; is-custom-font: none; font-file-url: none; fill: rgb(34,34,34); fill-rule: nonzero; opacity: 1;" transform=" translate(-2.8718, -17.3494)" d="M 2.87179487 30 C 2.47527179 30 2.15384615 29.6763614 2.15384615 29.2771084 L 2.15384615 25.3012048 L 0.717948718 25.3012048 C 0.321425641 25.3012048 0 24.9775663 0 24.5783133 L 0 9.03614458 C 0 8.63689157 0.321425641 8.31325301 0.717948718 8.31325301 L 2.15384615 8.31325301 L 2.15384615 5.42168675 C 2.15384615 5.02243373 2.47527179 4.69879518 2.87179487 4.69879518 C 3.26831795 4.69879518 3.58974359 5.02243373 3.58974359 5.42168675 L 3.58974359 8.31325301 L 5.02564103 8.31325301 C 5.4221641 8.31325301 5.74358974 8.63689157 5.74358974 9.03614458 L 5.74358974 24.5783133 C 5.74358974 24.9775663 5.4221641 25.3012048 5.02564103 25.3012048 L 3.58974359 25.3012048 L 3.58974359 29.2771084 C 3.58974359 29.6763614 3.26831795 30 2.87179487 30 Z" stroke-linecap="round"/>
</g>
		<g transform="matrix(1 0 0 1 11.1282 -2.3494)" id="Path">
<path style="stroke: none; stroke-width: 1; stroke-dasharray: none; stroke-linecap: butt; stroke-dashoffset: 0; stroke-linejoin: miter; stroke-miterlimit: 4; is-custom-font: none; font-file-url: none; fill: rgb(34,34,34); fill-rule: nonzero; opacity: 1;" transform=" translate(-25.1282, -12.6506)" d="M 24.4102564 24.5783133 C 24.4102564 24.9775663 24.7316821 25.3012048 25.1282051 25.3012048 C 25.5247282 25.3012048 25.8461538 24.9775663 25.8461538 24.5783133 L 25.8461538 20.6024096 L 27.2820513 20.6024096 C 27.6787179 20.6024096 28 20.2787711 28 19.8795181 L 28 4.3373494 C 28 3.93809639 27.6787179 3.61445783 27.2820513 3.61445783 L 25.8461538 3.61445783 L 25.8461538 0.722891566 C 25.8461538 0.323638554 25.5247282 0 25.1282051 0 C 24.7316821 0 24.4102564 0.323638554 24.4102564 0.722891566 L 24.4102564 3.61445783 L 22.974359 3.61445783 C 22.5778359 3.61445783 22.2564103 3.93809639 22.2564103 4.3373494 L 22.2564103 19.8795181 C 22.2564103 20.2787711 22.5778359 20.6024096 22.974359 20.6024096 L 24.4102564 20.6024096 L 24.4102564 24.5783133 Z" stroke-linecap="round"/>
</g>
</g>
</g>
</svg>